%TF.GenerationSoftware,KiCad,Pcbnew,9.0.0*%
%TF.CreationDate,2025-04-29T12:03:14+05:30*%
%TF.ProjectId,Wireless_charging,57697265-6c65-4737-935f-636861726769,rev?*%
%TF.SameCoordinates,Original*%
%TF.FileFunction,Legend,Top*%
%TF.FilePolarity,Positive*%
%FSLAX46Y46*%
G04 Gerber Fmt 4.6, Leading zero omitted, Abs format (unit mm)*
G04 Created by KiCad (PCBNEW 9.0.0) date 2025-04-29 12:03:14*
%MOMM*%
%LPD*%
G01*
G04 APERTURE LIST*
%ADD10C,0.150000*%
%ADD11C,0.120000*%
G04 APERTURE END LIST*
D10*
X186238095Y-114954819D02*
X186238095Y-115764342D01*
X186238095Y-115764342D02*
X186285714Y-115859580D01*
X186285714Y-115859580D02*
X186333333Y-115907200D01*
X186333333Y-115907200D02*
X186428571Y-115954819D01*
X186428571Y-115954819D02*
X186619047Y-115954819D01*
X186619047Y-115954819D02*
X186714285Y-115907200D01*
X186714285Y-115907200D02*
X186761904Y-115859580D01*
X186761904Y-115859580D02*
X186809523Y-115764342D01*
X186809523Y-115764342D02*
X186809523Y-114954819D01*
X187238095Y-115050057D02*
X187285714Y-115002438D01*
X187285714Y-115002438D02*
X187380952Y-114954819D01*
X187380952Y-114954819D02*
X187619047Y-114954819D01*
X187619047Y-114954819D02*
X187714285Y-115002438D01*
X187714285Y-115002438D02*
X187761904Y-115050057D01*
X187761904Y-115050057D02*
X187809523Y-115145295D01*
X187809523Y-115145295D02*
X187809523Y-115240533D01*
X187809523Y-115240533D02*
X187761904Y-115383390D01*
X187761904Y-115383390D02*
X187190476Y-115954819D01*
X187190476Y-115954819D02*
X187809523Y-115954819D01*
X173344819Y-99371904D02*
X174154342Y-99371904D01*
X174154342Y-99371904D02*
X174249580Y-99324285D01*
X174249580Y-99324285D02*
X174297200Y-99276666D01*
X174297200Y-99276666D02*
X174344819Y-99181428D01*
X174344819Y-99181428D02*
X174344819Y-98990952D01*
X174344819Y-98990952D02*
X174297200Y-98895714D01*
X174297200Y-98895714D02*
X174249580Y-98848095D01*
X174249580Y-98848095D02*
X174154342Y-98800476D01*
X174154342Y-98800476D02*
X173344819Y-98800476D01*
X174344819Y-97800476D02*
X174344819Y-98371904D01*
X174344819Y-98086190D02*
X173344819Y-98086190D01*
X173344819Y-98086190D02*
X173487676Y-98181428D01*
X173487676Y-98181428D02*
X173582914Y-98276666D01*
X173582914Y-98276666D02*
X173630533Y-98371904D01*
X161141667Y-101372200D02*
X161284524Y-101419819D01*
X161284524Y-101419819D02*
X161522619Y-101419819D01*
X161522619Y-101419819D02*
X161617857Y-101372200D01*
X161617857Y-101372200D02*
X161665476Y-101324580D01*
X161665476Y-101324580D02*
X161713095Y-101229342D01*
X161713095Y-101229342D02*
X161713095Y-101134104D01*
X161713095Y-101134104D02*
X161665476Y-101038866D01*
X161665476Y-101038866D02*
X161617857Y-100991247D01*
X161617857Y-100991247D02*
X161522619Y-100943628D01*
X161522619Y-100943628D02*
X161332143Y-100896009D01*
X161332143Y-100896009D02*
X161236905Y-100848390D01*
X161236905Y-100848390D02*
X161189286Y-100800771D01*
X161189286Y-100800771D02*
X161141667Y-100705533D01*
X161141667Y-100705533D02*
X161141667Y-100610295D01*
X161141667Y-100610295D02*
X161189286Y-100515057D01*
X161189286Y-100515057D02*
X161236905Y-100467438D01*
X161236905Y-100467438D02*
X161332143Y-100419819D01*
X161332143Y-100419819D02*
X161570238Y-100419819D01*
X161570238Y-100419819D02*
X161713095Y-100467438D01*
X162046429Y-100419819D02*
X162284524Y-101419819D01*
X162284524Y-101419819D02*
X162475000Y-100705533D01*
X162475000Y-100705533D02*
X162665476Y-101419819D01*
X162665476Y-101419819D02*
X162903572Y-100419819D01*
X163808333Y-101419819D02*
X163236905Y-101419819D01*
X163522619Y-101419819D02*
X163522619Y-100419819D01*
X163522619Y-100419819D02*
X163427381Y-100562676D01*
X163427381Y-100562676D02*
X163332143Y-100657914D01*
X163332143Y-100657914D02*
X163236905Y-100705533D01*
X176516666Y-100469819D02*
X176516666Y-101184104D01*
X176516666Y-101184104D02*
X176469047Y-101326961D01*
X176469047Y-101326961D02*
X176373809Y-101422200D01*
X176373809Y-101422200D02*
X176230952Y-101469819D01*
X176230952Y-101469819D02*
X176135714Y-101469819D01*
X176897619Y-100469819D02*
X177516666Y-100469819D01*
X177516666Y-100469819D02*
X177183333Y-100850771D01*
X177183333Y-100850771D02*
X177326190Y-100850771D01*
X177326190Y-100850771D02*
X177421428Y-100898390D01*
X177421428Y-100898390D02*
X177469047Y-100946009D01*
X177469047Y-100946009D02*
X177516666Y-101041247D01*
X177516666Y-101041247D02*
X177516666Y-101279342D01*
X177516666Y-101279342D02*
X177469047Y-101374580D01*
X177469047Y-101374580D02*
X177421428Y-101422200D01*
X177421428Y-101422200D02*
X177326190Y-101469819D01*
X177326190Y-101469819D02*
X177040476Y-101469819D01*
X177040476Y-101469819D02*
X176945238Y-101422200D01*
X176945238Y-101422200D02*
X176897619Y-101374580D01*
X198666666Y-110444819D02*
X198666666Y-111159104D01*
X198666666Y-111159104D02*
X198619047Y-111301961D01*
X198619047Y-111301961D02*
X198523809Y-111397200D01*
X198523809Y-111397200D02*
X198380952Y-111444819D01*
X198380952Y-111444819D02*
X198285714Y-111444819D01*
X199095238Y-110540057D02*
X199142857Y-110492438D01*
X199142857Y-110492438D02*
X199238095Y-110444819D01*
X199238095Y-110444819D02*
X199476190Y-110444819D01*
X199476190Y-110444819D02*
X199571428Y-110492438D01*
X199571428Y-110492438D02*
X199619047Y-110540057D01*
X199619047Y-110540057D02*
X199666666Y-110635295D01*
X199666666Y-110635295D02*
X199666666Y-110730533D01*
X199666666Y-110730533D02*
X199619047Y-110873390D01*
X199619047Y-110873390D02*
X199047619Y-111444819D01*
X199047619Y-111444819D02*
X199666666Y-111444819D01*
X188016666Y-100844819D02*
X188016666Y-101559104D01*
X188016666Y-101559104D02*
X187969047Y-101701961D01*
X187969047Y-101701961D02*
X187873809Y-101797200D01*
X187873809Y-101797200D02*
X187730952Y-101844819D01*
X187730952Y-101844819D02*
X187635714Y-101844819D01*
X189016666Y-101844819D02*
X188445238Y-101844819D01*
X188730952Y-101844819D02*
X188730952Y-100844819D01*
X188730952Y-100844819D02*
X188635714Y-100987676D01*
X188635714Y-100987676D02*
X188540476Y-101082914D01*
X188540476Y-101082914D02*
X188445238Y-101130533D01*
X196491905Y-110994819D02*
X196491905Y-109994819D01*
X196491905Y-109994819D02*
X196730000Y-109994819D01*
X196730000Y-109994819D02*
X196872857Y-110042438D01*
X196872857Y-110042438D02*
X196968095Y-110137676D01*
X196968095Y-110137676D02*
X197015714Y-110232914D01*
X197015714Y-110232914D02*
X197063333Y-110423390D01*
X197063333Y-110423390D02*
X197063333Y-110566247D01*
X197063333Y-110566247D02*
X197015714Y-110756723D01*
X197015714Y-110756723D02*
X196968095Y-110851961D01*
X196968095Y-110851961D02*
X196872857Y-110947200D01*
X196872857Y-110947200D02*
X196730000Y-110994819D01*
X196730000Y-110994819D02*
X196491905Y-110994819D01*
X198015714Y-110994819D02*
X197444286Y-110994819D01*
X197730000Y-110994819D02*
X197730000Y-109994819D01*
X197730000Y-109994819D02*
X197634762Y-110137676D01*
X197634762Y-110137676D02*
X197539524Y-110232914D01*
X197539524Y-110232914D02*
X197444286Y-110280533D01*
D11*
%TO.C,U2*%
X185150000Y-110055000D02*
X188910000Y-110055000D01*
X185150000Y-116875000D02*
X188910000Y-116875000D01*
X188910000Y-110055000D02*
X188910000Y-111315000D01*
X188910000Y-116875000D02*
X188910000Y-115615000D01*
X183870000Y-110155000D02*
X183630000Y-109825000D01*
X184110000Y-109825000D01*
X183870000Y-110155000D01*
G36*
X183870000Y-110155000D02*
G01*
X183630000Y-109825000D01*
X184110000Y-109825000D01*
X183870000Y-110155000D01*
G37*
%TO.C,U1*%
X175380000Y-74320000D02*
X175380000Y-80480000D01*
X175380000Y-74320000D02*
X193620000Y-74320000D01*
X175380000Y-99280000D02*
X175380000Y-100060000D01*
X175380000Y-100060000D02*
X176380000Y-100060000D01*
X193620000Y-74320000D02*
X193620000Y-80735000D01*
X193620000Y-99280000D02*
X193620000Y-100060000D01*
X193620000Y-100060000D02*
X192620000Y-100060000D01*
X175375000Y-81205000D02*
X174875000Y-81205000D01*
X175375000Y-80705000D01*
X175375000Y-81205000D01*
G36*
X175375000Y-81205000D02*
G01*
X174875000Y-81205000D01*
X175375000Y-80705000D01*
X175375000Y-81205000D01*
G37*
%TO.C,SW1*%
X160550000Y-104290000D02*
X160550000Y-109540000D01*
X160550000Y-114790000D02*
X160550000Y-113540000D01*
X161100000Y-104290000D02*
X160550000Y-104290000D01*
X161100000Y-114790000D02*
X160550000Y-114790000D01*
X170500000Y-104290000D02*
X171050000Y-104290000D01*
X170500000Y-114790000D02*
X171050000Y-114790000D01*
X171050000Y-104290000D02*
X171050000Y-105540000D01*
X171050000Y-114790000D02*
X171050000Y-113540000D01*
%TO.C,J3*%
X173200000Y-101775000D02*
X173200000Y-103158000D01*
X173200000Y-101775000D02*
X174583000Y-101775000D01*
X173440000Y-102015000D02*
X173440000Y-103325000D01*
X173440000Y-102015000D02*
X180260000Y-102015000D01*
X173440000Y-104925000D02*
X173440000Y-105865000D01*
X173440000Y-107465000D02*
X173440000Y-108405000D01*
X173440000Y-110005000D02*
X173440000Y-110945000D01*
X173440000Y-112545000D02*
X173440000Y-113485000D01*
X173440000Y-115085000D02*
X173440000Y-116395000D01*
X173440000Y-116395000D02*
X180260000Y-116395000D01*
X176246667Y-103490000D02*
X176246667Y-104760000D01*
X176246667Y-106030000D02*
X176246667Y-107300000D01*
X176246667Y-108570000D02*
X176246667Y-109840000D01*
X176246667Y-111110000D02*
X176246667Y-112380000D01*
X176246667Y-113650000D02*
X176246667Y-114920000D01*
X180260000Y-102015000D02*
X180260000Y-103325000D01*
X180260000Y-104925000D02*
X180260000Y-105865000D01*
X180260000Y-107465000D02*
X180260000Y-108405000D01*
X180260000Y-110005000D02*
X180260000Y-110945000D01*
X180260000Y-112545000D02*
X180260000Y-113485000D01*
X180260000Y-115085000D02*
X180260000Y-116395000D01*
X175040000Y-103490000D02*
X176246667Y-103490000D01*
X176246667Y-104760000D01*
X175040000Y-104760000D01*
X175040000Y-103490000D01*
G36*
X175040000Y-103490000D02*
G01*
X176246667Y-103490000D01*
X176246667Y-104760000D01*
X175040000Y-104760000D01*
X175040000Y-103490000D01*
G37*
X175040000Y-103490000D02*
X178660000Y-103490000D01*
X178660000Y-104760000D01*
X175040000Y-104760000D01*
X175040000Y-103490000D01*
X175040000Y-106030000D02*
X176246667Y-106030000D01*
X176246667Y-107300000D01*
X175040000Y-107300000D01*
X175040000Y-106030000D01*
G36*
X175040000Y-106030000D02*
G01*
X176246667Y-106030000D01*
X176246667Y-107300000D01*
X175040000Y-107300000D01*
X175040000Y-106030000D01*
G37*
X175040000Y-106030000D02*
X178660000Y-106030000D01*
X178660000Y-107300000D01*
X175040000Y-107300000D01*
X175040000Y-106030000D01*
X175040000Y-108570000D02*
X176246667Y-108570000D01*
X176246667Y-109840000D01*
X175040000Y-109840000D01*
X175040000Y-108570000D01*
G36*
X175040000Y-108570000D02*
G01*
X176246667Y-108570000D01*
X176246667Y-109840000D01*
X175040000Y-109840000D01*
X175040000Y-108570000D01*
G37*
X175040000Y-108570000D02*
X178660000Y-108570000D01*
X178660000Y-109840000D01*
X175040000Y-109840000D01*
X175040000Y-108570000D01*
X175040000Y-111110000D02*
X176246667Y-111110000D01*
X176246667Y-112380000D01*
X175040000Y-112380000D01*
X175040000Y-111110000D01*
G36*
X175040000Y-111110000D02*
G01*
X176246667Y-111110000D01*
X176246667Y-112380000D01*
X175040000Y-112380000D01*
X175040000Y-111110000D01*
G37*
X175040000Y-111110000D02*
X178660000Y-111110000D01*
X178660000Y-112380000D01*
X175040000Y-112380000D01*
X175040000Y-111110000D01*
X175040000Y-113650000D02*
X176246667Y-113650000D01*
X176246667Y-114920000D01*
X175040000Y-114920000D01*
X175040000Y-113650000D01*
G36*
X175040000Y-113650000D02*
G01*
X176246667Y-113650000D01*
X176246667Y-114920000D01*
X175040000Y-114920000D01*
X175040000Y-113650000D01*
G37*
X175040000Y-113650000D02*
X178660000Y-113650000D01*
X178660000Y-114920000D01*
X175040000Y-114920000D01*
X175040000Y-113650000D01*
%TO.C,J2*%
X197095000Y-107260000D02*
X197095000Y-106625000D01*
X197730000Y-107260000D02*
X197095000Y-107260000D01*
%TO.C,J1*%
X183000000Y-102340000D02*
X188750000Y-102340000D01*
X183000000Y-108340000D02*
X183000000Y-102340000D01*
X184350000Y-107230000D02*
X189430000Y-107230000D01*
X184350000Y-108240000D02*
X184350000Y-107230000D01*
X189430000Y-107230000D02*
X189430000Y-108240000D01*
X190100000Y-102390000D02*
X193300000Y-102390000D01*
X193300000Y-102390000D02*
X193300000Y-108340000D01*
X193300000Y-108340000D02*
X183000000Y-108340000D01*
%TO.C,D1*%
X195520000Y-113710000D02*
X195520000Y-115430000D01*
X195520000Y-115430000D02*
X198940000Y-115430000D01*
X195640000Y-113710000D02*
X195640000Y-115430000D01*
X195760000Y-113710000D02*
X195760000Y-115430000D01*
X195960000Y-113580000D02*
X195960000Y-113580000D01*
X195960000Y-113580000D02*
X195960000Y-113710000D01*
X195960000Y-113710000D02*
X195960000Y-113580000D01*
X195960000Y-113710000D02*
X195960000Y-113710000D01*
X196270000Y-115430000D02*
X196270000Y-116830000D01*
X196270000Y-116830000D02*
X198190000Y-116830000D01*
X198190000Y-115430000D02*
X196270000Y-115430000D01*
X198190000Y-116830000D02*
X198190000Y-115430000D01*
X198500000Y-113580000D02*
X198500000Y-113580000D01*
X198500000Y-113580000D02*
X198500000Y-113710000D01*
X198500000Y-113710000D02*
X198500000Y-113580000D01*
X198500000Y-113710000D02*
X198500000Y-113710000D01*
X198940000Y-113710000D02*
X195520000Y-113710000D01*
X198940000Y-115430000D02*
X198940000Y-113710000D01*
%TD*%
M02*
