%TF.GenerationSoftware,KiCad,Pcbnew,9.0.0*%
%TF.CreationDate,2025-04-29T12:03:14+05:30*%
%TF.ProjectId,Wireless_charging,57697265-6c65-4737-935f-636861726769,rev?*%
%TF.SameCoordinates,Original*%
%TF.FileFunction,Copper,L1,Top*%
%TF.FilePolarity,Positive*%
%FSLAX46Y46*%
G04 Gerber Fmt 4.6, Leading zero omitted, Abs format (unit mm)*
G04 Created by KiCad (PCBNEW 9.0.0) date 2025-04-29 12:03:14*
%MOMM*%
%LPD*%
G01*
G04 APERTURE LIST*
G04 Aperture macros list*
%AMRoundRect*
0 Rectangle with rounded corners*
0 $1 Rounding radius*
0 $2 $3 $4 $5 $6 $7 $8 $9 X,Y pos of 4 corners*
0 Add a 4 corners polygon primitive as box body*
4,1,4,$2,$3,$4,$5,$6,$7,$8,$9,$2,$3,0*
0 Add four circle primitives for the rounded corners*
1,1,$1+$1,$2,$3*
1,1,$1+$1,$4,$5*
1,1,$1+$1,$6,$7*
1,1,$1+$1,$8,$9*
0 Add four rect primitives between the rounded corners*
20,1,$1+$1,$2,$3,$4,$5,0*
20,1,$1+$1,$4,$5,$6,$7,0*
20,1,$1+$1,$6,$7,$8,$9,0*
20,1,$1+$1,$8,$9,$2,$3,0*%
G04 Aperture macros list end*
%TA.AperFunction,SMDPad,CuDef*%
%ADD10RoundRect,0.375000X-0.625000X-0.375000X0.625000X-0.375000X0.625000X0.375000X-0.625000X0.375000X0*%
%TD*%
%TA.AperFunction,SMDPad,CuDef*%
%ADD11RoundRect,0.500000X-0.500000X-1.400000X0.500000X-1.400000X0.500000X1.400000X-0.500000X1.400000X0*%
%TD*%
%TA.AperFunction,SMDPad,CuDef*%
%ADD12R,1.500000X0.900000*%
%TD*%
%TA.AperFunction,SMDPad,CuDef*%
%ADD13R,0.900000X1.500000*%
%TD*%
%TA.AperFunction,SMDPad,CuDef*%
%ADD14R,1.050000X1.050000*%
%TD*%
%TA.AperFunction,HeatsinkPad*%
%ADD15C,0.600000*%
%TD*%
%TA.AperFunction,HeatsinkPad*%
%ADD16R,4.200000X4.200000*%
%TD*%
%TA.AperFunction,SMDPad,CuDef*%
%ADD17R,1.200000X2.500000*%
%TD*%
%TA.AperFunction,SMDPad,CuDef*%
%ADD18RoundRect,0.250000X-0.830000X-0.310000X0.830000X-0.310000X0.830000X0.310000X-0.830000X0.310000X0*%
%TD*%
%TA.AperFunction,ConnectorPad*%
%ADD19C,0.787400*%
%TD*%
%TA.AperFunction,ComponentPad*%
%ADD20R,1.730000X2.030000*%
%TD*%
%TA.AperFunction,ComponentPad*%
%ADD21O,1.730000X2.030000*%
%TD*%
%TA.AperFunction,ComponentPad*%
%ADD22R,1.800000X1.800000*%
%TD*%
%TA.AperFunction,ComponentPad*%
%ADD23C,1.800000*%
%TD*%
%TA.AperFunction,ViaPad*%
%ADD24C,0.600000*%
%TD*%
%TA.AperFunction,Conductor*%
%ADD25C,0.200000*%
%TD*%
G04 APERTURE END LIST*
D10*
%TO.P,U2,1,GND*%
%TO.N,GND*%
X183850000Y-111165000D03*
%TO.P,U2,2,VO*%
%TO.N,+5V*%
X183850000Y-113465000D03*
D11*
X190150000Y-113465000D03*
D10*
%TO.P,U2,3,VI*%
%TO.N,/pin1*%
X183850000Y-115765000D03*
%TD*%
D12*
%TO.P,U1,1,GND*%
%TO.N,/gnd*%
X175750000Y-81930000D03*
%TO.P,U1,2,VDD*%
%TO.N,+5V*%
X175750000Y-83200000D03*
%TO.P,U1,3,EN*%
%TO.N,/en*%
X175750000Y-84470000D03*
%TO.P,U1,4,SENSOR_VP*%
%TO.N,/esp4*%
X175750000Y-85740000D03*
%TO.P,U1,5,SENSOR_VN*%
%TO.N,/esp5*%
X175750000Y-87010000D03*
%TO.P,U1,6,IO34*%
%TO.N,unconnected-(U1-IO34-Pad6)*%
X175750000Y-88280000D03*
%TO.P,U1,7,IO35*%
%TO.N,unconnected-(U1-IO35-Pad7)*%
X175750000Y-89550000D03*
%TO.P,U1,8,IO32*%
%TO.N,unconnected-(U1-IO32-Pad8)*%
X175750000Y-90820000D03*
%TO.P,U1,9,IO33*%
%TO.N,unconnected-(U1-IO33-Pad9)*%
X175750000Y-92090000D03*
%TO.P,U1,10,IO25*%
%TO.N,unconnected-(U1-IO25-Pad10)*%
X175750000Y-93360000D03*
%TO.P,U1,11,IO26*%
%TO.N,unconnected-(U1-IO26-Pad11)*%
X175750000Y-94630000D03*
%TO.P,U1,12,IO27*%
%TO.N,unconnected-(U1-IO27-Pad12)*%
X175750000Y-95900000D03*
%TO.P,U1,13,IO14*%
%TO.N,unconnected-(U1-IO14-Pad13)*%
X175750000Y-97170000D03*
%TO.P,U1,14,IO12*%
%TO.N,unconnected-(U1-IO12-Pad14)*%
X175750000Y-98440000D03*
D13*
%TO.P,U1,15,GND*%
%TO.N,/gnd*%
X178790000Y-99690000D03*
%TO.P,U1,16,IO13*%
%TO.N,unconnected-(U1-IO13-Pad16)*%
X180060000Y-99690000D03*
%TO.P,U1,17,SHD/SD2*%
%TO.N,unconnected-(U1-SHD{slash}SD2-Pad17)*%
X181330000Y-99690000D03*
%TO.P,U1,18,SWP/SD3*%
%TO.N,unconnected-(U1-SWP{slash}SD3-Pad18)*%
X182600000Y-99690000D03*
%TO.P,U1,19,SCS/CMD*%
%TO.N,unconnected-(U1-SCS{slash}CMD-Pad19)*%
X183870000Y-99690000D03*
%TO.P,U1,20,SCK/CLK*%
%TO.N,unconnected-(U1-SCK{slash}CLK-Pad20)*%
X185140000Y-99690000D03*
%TO.P,U1,21,SDO/SD0*%
%TO.N,unconnected-(U1-SDO{slash}SD0-Pad21)*%
X186410000Y-99690000D03*
%TO.P,U1,22,SDI/SD1*%
%TO.N,unconnected-(U1-SDI{slash}SD1-Pad22)*%
X187680000Y-99690000D03*
%TO.P,U1,23,IO15*%
%TO.N,unconnected-(U1-IO15-Pad23)*%
X188950000Y-99690000D03*
%TO.P,U1,24,IO2*%
%TO.N,/esp24*%
X190220000Y-99690000D03*
D12*
%TO.P,U1,25,IO0*%
%TO.N,unconnected-(U1-IO0-Pad25)*%
X193250000Y-98440000D03*
%TO.P,U1,26,IO4*%
%TO.N,/esp26*%
X193250000Y-97170000D03*
%TO.P,U1,27,IO16*%
%TO.N,unconnected-(U1-IO16-Pad27)*%
X193250000Y-95900000D03*
%TO.P,U1,28,IO17*%
%TO.N,unconnected-(U1-IO17-Pad28)*%
X193250000Y-94630000D03*
%TO.P,U1,29,IO5*%
%TO.N,/esp29*%
X193250000Y-93360000D03*
%TO.P,U1,30,IO18*%
%TO.N,unconnected-(U1-IO18-Pad30)*%
X193250000Y-92090000D03*
%TO.P,U1,31,IO19*%
%TO.N,unconnected-(U1-IO19-Pad31)*%
X193250000Y-90820000D03*
%TO.P,U1,32,NC*%
%TO.N,unconnected-(U1-NC-Pad32)*%
X193250000Y-89550000D03*
%TO.P,U1,33,IO21*%
%TO.N,unconnected-(U1-IO21-Pad33)*%
X193250000Y-88280000D03*
%TO.P,U1,34,RXD0/IO3*%
%TO.N,unconnected-(U1-RXD0{slash}IO3-Pad34)*%
X193250000Y-87010000D03*
%TO.P,U1,35,TXD0/IO1*%
%TO.N,/esp35*%
X193250000Y-85740000D03*
%TO.P,U1,36,IO22*%
%TO.N,unconnected-(U1-IO22-Pad36)*%
X193250000Y-84470000D03*
%TO.P,U1,37,IO23*%
%TO.N,unconnected-(U1-IO23-Pad37)*%
X193250000Y-83200000D03*
%TO.P,U1,38,GND*%
%TO.N,/gnd*%
X193250000Y-81930000D03*
D14*
%TO.P,U1,39,GND*%
X182295000Y-87745000D03*
D15*
X182295000Y-88507500D03*
D14*
X182295000Y-89270000D03*
D15*
X182295000Y-90032500D03*
D14*
X182295000Y-90795000D03*
D15*
X183057500Y-87745000D03*
X183057500Y-89270000D03*
X183057500Y-90795000D03*
D14*
X183820000Y-87745000D03*
D15*
X183820000Y-88507500D03*
D14*
X183820000Y-89270000D03*
D16*
X183820000Y-89270000D03*
D15*
X183820000Y-90032500D03*
D14*
X183820000Y-90795000D03*
D15*
X184582500Y-87745000D03*
X184582500Y-89270000D03*
X184582500Y-90795000D03*
D14*
X185345000Y-87745000D03*
D15*
X185345000Y-88507500D03*
D14*
X185345000Y-89270000D03*
D15*
X185345000Y-90032500D03*
D14*
X185345000Y-90795000D03*
%TD*%
D17*
%TO.P,SW1,1,1*%
%TO.N,/gnd*%
X161990000Y-103290000D03*
%TO.P,SW1,2,2*%
%TO.N,/esp4*%
X161990000Y-115790000D03*
%TO.P,SW1,3*%
%TO.N,N/C*%
X169610000Y-103290000D03*
%TO.P,SW1,4*%
X169610000Y-115790000D03*
%TD*%
D18*
%TO.P,J3,1,Pin_1*%
%TO.N,/esp35*%
X173485000Y-104125000D03*
%TO.P,J3,2,Pin_2*%
%TO.N,/esp5*%
X173485000Y-106665000D03*
%TO.P,J3,3,Pin_3*%
%TO.N,/gnd*%
X173485000Y-109205000D03*
%TO.P,J3,4,Pin_4*%
%TO.N,/en*%
X173485000Y-111745000D03*
%TO.P,J3,5,Pin_5*%
%TO.N,/esp4*%
X173485000Y-114285000D03*
%TO.P,J3,6*%
%TO.N,N/C*%
X180215000Y-114285000D03*
%TO.P,J3,7*%
X180215000Y-111745000D03*
%TO.P,J3,8*%
X180215000Y-109205000D03*
%TO.P,J3,9*%
X180215000Y-106665000D03*
%TO.P,J3,10*%
X180215000Y-104125000D03*
%TD*%
D19*
%TO.P,J2,1*%
%TO.N,/pin1*%
X197730000Y-106625000D03*
%TO.P,J2,2*%
%TO.N,/gnd*%
X197730000Y-105355000D03*
%TO.P,J2,3*%
%TO.N,N/C*%
X199000000Y-106625000D03*
%TO.P,J2,4*%
X199000000Y-105355000D03*
%TO.P,J2,5*%
X200270000Y-106625000D03*
%TO.P,J2,6*%
X200270000Y-105355000D03*
%TD*%
D20*
%TO.P,J1,1,Pin_1*%
%TO.N,/pin1*%
X184350000Y-104940000D03*
D21*
%TO.P,J1,2,Pin_2*%
%TO.N,/gnd*%
X186890000Y-104940000D03*
%TO.P,J1,3,Pin_3*%
%TO.N,/esp26*%
X189430000Y-104940000D03*
%TO.P,J1,4,Pin_4*%
%TO.N,/esp29*%
X191970000Y-104940000D03*
%TD*%
D22*
%TO.P,D1,1,K*%
%TO.N,GND*%
X195960000Y-112500000D03*
D23*
%TO.P,D1,2,A*%
%TO.N,/esp24*%
X198500000Y-112500000D03*
%TD*%
D24*
%TO.N,/esp26*%
X189500000Y-96500000D03*
X192500000Y-101000000D03*
%TO.N,/esp29*%
X198500000Y-97000000D03*
X194000000Y-101500000D03*
%TO.N,/esp35*%
X175500000Y-102000000D03*
X181500000Y-96500000D03*
%TO.N,/esp4*%
X162500000Y-89000000D03*
X153500000Y-90500000D03*
%TO.N,/gnd*%
X177000000Y-99500000D03*
X169500000Y-98000000D03*
%TD*%
D25*
%TO.N,/esp26*%
X190170000Y-97170000D02*
X193250000Y-97170000D01*
X189500000Y-96500000D02*
X190170000Y-97170000D01*
X189430000Y-104070000D02*
X192500000Y-101000000D01*
X189430000Y-104940000D02*
X189430000Y-104070000D01*
%TO.N,/esp29*%
X194860000Y-93360000D02*
X193250000Y-93360000D01*
X198500000Y-97000000D02*
X194860000Y-93360000D01*
X191970000Y-103530000D02*
X194000000Y-101500000D01*
X191970000Y-104940000D02*
X191970000Y-103530000D01*
%TO.N,/esp35*%
X175500000Y-102110000D02*
X173485000Y-104125000D01*
X175500000Y-102000000D02*
X175500000Y-102110000D01*
X181500000Y-96392000D02*
X181500000Y-96500000D01*
X192152000Y-85740000D02*
X181500000Y-96392000D01*
X193250000Y-85740000D02*
X192152000Y-85740000D01*
%TO.N,+5V*%
X193185000Y-116500000D02*
X190150000Y-113465000D01*
X199000000Y-116500000D02*
X193185000Y-116500000D01*
X205500000Y-110000000D02*
X199000000Y-116500000D01*
X194301000Y-81179000D02*
X205500000Y-92378000D01*
X205500000Y-92378000D02*
X205500000Y-110000000D01*
X174699000Y-81179000D02*
X194301000Y-81179000D01*
X174699000Y-82681000D02*
X174699000Y-81179000D01*
X175750000Y-83200000D02*
X175218000Y-83200000D01*
X175218000Y-83200000D02*
X174699000Y-82681000D01*
%TO.N,/esp5*%
X172104000Y-98104000D02*
X172104000Y-105284000D01*
X164500000Y-90500000D02*
X172104000Y-98104000D01*
X167990000Y-87010000D02*
X164500000Y-90500000D01*
X172104000Y-105284000D02*
X173485000Y-106665000D01*
X175750000Y-87010000D02*
X167990000Y-87010000D01*
%TO.N,/esp4*%
X165760000Y-85740000D02*
X175750000Y-85740000D01*
X162500000Y-89000000D02*
X165760000Y-85740000D01*
X153500000Y-110000000D02*
X153500000Y-90500000D01*
X157000000Y-113500000D02*
X153500000Y-110000000D01*
X157599000Y-112901000D02*
X157000000Y-113500000D01*
X172101000Y-112901000D02*
X157599000Y-112901000D01*
X173485000Y-114285000D02*
X172101000Y-112901000D01*
%TO.N,/en*%
X160500000Y-112500000D02*
X172730000Y-112500000D01*
X157500000Y-109500000D02*
X160500000Y-112500000D01*
X157000000Y-109500000D02*
X157500000Y-109500000D01*
X156500000Y-86500000D02*
X157000000Y-87000000D01*
X157000000Y-87000000D02*
X157000000Y-109500000D01*
X172730000Y-112500000D02*
X173485000Y-111745000D01*
X158530000Y-84470000D02*
X156500000Y-86500000D01*
X175750000Y-84470000D02*
X158530000Y-84470000D01*
%TO.N,/gnd*%
X178790000Y-94300000D02*
X178790000Y-99690000D01*
X182295000Y-90795000D02*
X178790000Y-94300000D01*
%TO.N,/pin1*%
X186246300Y-106836300D02*
X197518700Y-106836300D01*
X184350000Y-104940000D02*
X186246300Y-106836300D01*
X197518700Y-106836300D02*
X197730000Y-106625000D01*
X182549000Y-106741000D02*
X184350000Y-104940000D01*
X182549000Y-114464000D02*
X182549000Y-106741000D01*
X183850000Y-115765000D02*
X182549000Y-114464000D01*
%TO.N,+5V*%
X190150000Y-113465000D02*
X183850000Y-113465000D01*
%TO.N,/esp24*%
X198050697Y-99690000D02*
X190220000Y-99690000D01*
X202386300Y-104025603D02*
X198050697Y-99690000D01*
X202386300Y-108613700D02*
X202386300Y-104025603D01*
X198500000Y-112500000D02*
X202386300Y-108613700D01*
%TO.N,/gnd*%
X196109451Y-105143700D02*
X197518700Y-105143700D01*
X194997151Y-106256000D02*
X196109451Y-105143700D01*
X197518700Y-105143700D02*
X197730000Y-105355000D01*
X188206000Y-106256000D02*
X194997151Y-106256000D01*
X186890000Y-104940000D02*
X188206000Y-106256000D01*
X185574000Y-103624000D02*
X186890000Y-104940000D01*
X181774000Y-103624000D02*
X185574000Y-103624000D01*
X178790000Y-100640000D02*
X181774000Y-103624000D01*
X178790000Y-99690000D02*
X178790000Y-100640000D01*
X178600000Y-99500000D02*
X178790000Y-99690000D01*
X177000000Y-99500000D02*
X178600000Y-99500000D01*
X160500000Y-98000000D02*
X169500000Y-98000000D01*
X158500000Y-100000000D02*
X160500000Y-98000000D01*
X161000000Y-111500000D02*
X158500000Y-109000000D01*
X171000000Y-111500000D02*
X161000000Y-111500000D01*
X171190000Y-111500000D02*
X171000000Y-111500000D01*
X173485000Y-109205000D02*
X171190000Y-111500000D01*
X158500000Y-109000000D02*
X158500000Y-100000000D01*
X167905000Y-109205000D02*
X161990000Y-103290000D01*
X173485000Y-109205000D02*
X167905000Y-109205000D01*
%TO.N,GND*%
X194625000Y-111165000D02*
X183850000Y-111165000D01*
X195960000Y-112500000D02*
X194625000Y-111165000D01*
%TO.N,/esp4*%
X173439000Y-114239000D02*
X173485000Y-114285000D01*
X163541000Y-114239000D02*
X173439000Y-114239000D01*
X161990000Y-115790000D02*
X163541000Y-114239000D01*
%TO.N,/gnd*%
X176480000Y-81930000D02*
X182295000Y-87745000D01*
X175750000Y-81930000D02*
X176480000Y-81930000D01*
X191160000Y-81930000D02*
X185345000Y-87745000D01*
X193250000Y-81930000D02*
X191160000Y-81930000D01*
%TD*%
M02*
