%TF.GenerationSoftware,KiCad,Pcbnew,9.0.0*%
%TF.CreationDate,2025-04-29T12:03:14+05:30*%
%TF.ProjectId,Wireless_charging,57697265-6c65-4737-935f-636861726769,rev?*%
%TF.SameCoordinates,Original*%
%TF.FileFunction,Paste,Top*%
%TF.FilePolarity,Positive*%
%FSLAX46Y46*%
G04 Gerber Fmt 4.6, Leading zero omitted, Abs format (unit mm)*
G04 Created by KiCad (PCBNEW 9.0.0) date 2025-04-29 12:03:14*
%MOMM*%
%LPD*%
G01*
G04 APERTURE LIST*
G04 Aperture macros list*
%AMRoundRect*
0 Rectangle with rounded corners*
0 $1 Rounding radius*
0 $2 $3 $4 $5 $6 $7 $8 $9 X,Y pos of 4 corners*
0 Add a 4 corners polygon primitive as box body*
4,1,4,$2,$3,$4,$5,$6,$7,$8,$9,$2,$3,0*
0 Add four circle primitives for the rounded corners*
1,1,$1+$1,$2,$3*
1,1,$1+$1,$4,$5*
1,1,$1+$1,$6,$7*
1,1,$1+$1,$8,$9*
0 Add four rect primitives between the rounded corners*
20,1,$1+$1,$2,$3,$4,$5,0*
20,1,$1+$1,$4,$5,$6,$7,0*
20,1,$1+$1,$6,$7,$8,$9,0*
20,1,$1+$1,$8,$9,$2,$3,0*%
G04 Aperture macros list end*
%ADD10RoundRect,0.375000X-0.625000X-0.375000X0.625000X-0.375000X0.625000X0.375000X-0.625000X0.375000X0*%
%ADD11RoundRect,0.500000X-0.500000X-1.400000X0.500000X-1.400000X0.500000X1.400000X-0.500000X1.400000X0*%
%ADD12R,1.500000X0.900000*%
%ADD13R,0.900000X1.500000*%
%ADD14R,1.050000X1.050000*%
%ADD15R,1.200000X2.500000*%
%ADD16RoundRect,0.250000X-0.830000X-0.310000X0.830000X-0.310000X0.830000X0.310000X-0.830000X0.310000X0*%
G04 APERTURE END LIST*
D10*
%TO.C,U2*%
X183850000Y-111165000D03*
X183850000Y-113465000D03*
D11*
X190150000Y-113465000D03*
D10*
X183850000Y-115765000D03*
%TD*%
D12*
%TO.C,U1*%
X175750000Y-81930000D03*
X175750000Y-83200000D03*
X175750000Y-84470000D03*
X175750000Y-85740000D03*
X175750000Y-87010000D03*
X175750000Y-88280000D03*
X175750000Y-89550000D03*
X175750000Y-90820000D03*
X175750000Y-92090000D03*
X175750000Y-93360000D03*
X175750000Y-94630000D03*
X175750000Y-95900000D03*
X175750000Y-97170000D03*
X175750000Y-98440000D03*
D13*
X178790000Y-99690000D03*
X180060000Y-99690000D03*
X181330000Y-99690000D03*
X182600000Y-99690000D03*
X183870000Y-99690000D03*
X185140000Y-99690000D03*
X186410000Y-99690000D03*
X187680000Y-99690000D03*
X188950000Y-99690000D03*
X190220000Y-99690000D03*
D12*
X193250000Y-98440000D03*
X193250000Y-97170000D03*
X193250000Y-95900000D03*
X193250000Y-94630000D03*
X193250000Y-93360000D03*
X193250000Y-92090000D03*
X193250000Y-90820000D03*
X193250000Y-89550000D03*
X193250000Y-88280000D03*
X193250000Y-87010000D03*
X193250000Y-85740000D03*
X193250000Y-84470000D03*
X193250000Y-83200000D03*
X193250000Y-81930000D03*
D14*
X182295000Y-87745000D03*
X182295000Y-89270000D03*
X182295000Y-90795000D03*
X183820000Y-87745000D03*
X183820000Y-89270000D03*
X183820000Y-90795000D03*
X185345000Y-87745000D03*
X185345000Y-89270000D03*
X185345000Y-90795000D03*
%TD*%
D15*
%TO.C,SW1*%
X161990000Y-103290000D03*
X161990000Y-115790000D03*
X169610000Y-103290000D03*
X169610000Y-115790000D03*
%TD*%
D16*
%TO.C,J3*%
X173485000Y-104125000D03*
X173485000Y-106665000D03*
X173485000Y-109205000D03*
X173485000Y-111745000D03*
X173485000Y-114285000D03*
X180215000Y-114285000D03*
X180215000Y-111745000D03*
X180215000Y-109205000D03*
X180215000Y-106665000D03*
X180215000Y-104125000D03*
%TD*%
M02*
