%TF.GenerationSoftware,KiCad,Pcbnew,9.0.0*%
%TF.CreationDate,2025-04-29T12:03:14+05:30*%
%TF.ProjectId,Wireless_charging,57697265-6c65-4737-935f-636861726769,rev?*%
%TF.SameCoordinates,Original*%
%TF.FileFunction,Copper,L2,Bot*%
%TF.FilePolarity,Positive*%
%FSLAX46Y46*%
G04 Gerber Fmt 4.6, Leading zero omitted, Abs format (unit mm)*
G04 Created by KiCad (PCBNEW 9.0.0) date 2025-04-29 12:03:14*
%MOMM*%
%LPD*%
G01*
G04 APERTURE LIST*
%TA.AperFunction,HeatsinkPad*%
%ADD10C,0.600000*%
%TD*%
%TA.AperFunction,ComponentPad*%
%ADD11R,1.730000X2.030000*%
%TD*%
%TA.AperFunction,ComponentPad*%
%ADD12O,1.730000X2.030000*%
%TD*%
%TA.AperFunction,ComponentPad*%
%ADD13R,1.800000X1.800000*%
%TD*%
%TA.AperFunction,ComponentPad*%
%ADD14C,1.800000*%
%TD*%
%TA.AperFunction,ViaPad*%
%ADD15C,0.600000*%
%TD*%
%TA.AperFunction,Conductor*%
%ADD16C,0.200000*%
%TD*%
G04 APERTURE END LIST*
D10*
%TO.P,U1,39,GND*%
%TO.N,/gnd*%
X182295000Y-88507500D03*
X182295000Y-90032500D03*
X183057500Y-87745000D03*
X183057500Y-89270000D03*
X183057500Y-90795000D03*
X183820000Y-88507500D03*
X183820000Y-90032500D03*
X184582500Y-87745000D03*
X184582500Y-89270000D03*
X184582500Y-90795000D03*
X185345000Y-88507500D03*
X185345000Y-90032500D03*
%TD*%
D11*
%TO.P,J1,1,Pin_1*%
%TO.N,/pin1*%
X184350000Y-104940000D03*
D12*
%TO.P,J1,2,Pin_2*%
%TO.N,/gnd*%
X186890000Y-104940000D03*
%TO.P,J1,3,Pin_3*%
%TO.N,/esp26*%
X189430000Y-104940000D03*
%TO.P,J1,4,Pin_4*%
%TO.N,/esp29*%
X191970000Y-104940000D03*
%TD*%
D13*
%TO.P,D1,1,K*%
%TO.N,GND*%
X195960000Y-112500000D03*
D14*
%TO.P,D1,2,A*%
%TO.N,/esp24*%
X198500000Y-112500000D03*
%TD*%
D15*
%TO.N,/esp26*%
X189500000Y-96500000D03*
X192500000Y-101000000D03*
%TO.N,/esp29*%
X198500000Y-97000000D03*
X194000000Y-101500000D03*
%TO.N,/esp35*%
X175500000Y-102000000D03*
X181500000Y-96500000D03*
%TO.N,/esp4*%
X162500000Y-89000000D03*
X153500000Y-90500000D03*
%TO.N,/gnd*%
X177000000Y-99500000D03*
X169500000Y-98000000D03*
%TD*%
D16*
%TO.N,/esp26*%
X192500000Y-99500000D02*
X189500000Y-96500000D01*
X192500000Y-101000000D02*
X192500000Y-99500000D01*
%TO.N,/esp29*%
X194000000Y-101500000D02*
X198500000Y-97000000D01*
%TO.N,/esp35*%
X181000000Y-96500000D02*
X175500000Y-102000000D01*
X181500000Y-96500000D02*
X181000000Y-96500000D01*
%TO.N,/esp4*%
X161000000Y-90500000D02*
X162500000Y-89000000D01*
X153500000Y-90500000D02*
X161000000Y-90500000D01*
%TO.N,/gnd*%
X175500000Y-98000000D02*
X177000000Y-99500000D01*
X169500000Y-98000000D02*
X175500000Y-98000000D01*
%TD*%
M02*
